    <svg id="close">
        <path fill-rule="evenodd" fill="rgb(255, 255, 255)" d="M14.000,27.999 C6.268,27.999 0.000,21.732 0.000,14.000 C0.000,6.268 6.268,0.001 14.000,0.001 C21.732,0.001 27.999,6.268 27.999,14.000 C27.999,21.732 21.732,27.999 14.000,27.999 ZM20.124,9.499 L19.846,8.201 L18.548,7.923 L14.059,12.319 L9.569,7.923 L8.178,8.201 L7.993,9.499 L12.390,13.988 L7.900,18.478 L8.178,19.776 L9.569,20.054 L13.966,15.564 L18.548,20.054 L19.846,19.776 L20.124,18.478 L15.635,13.988 L20.124,9.499 Z" />
    </svg>