    <svg id="footerLogo">
        <path fill-rule="evenodd" fill="rgb(107, 112, 118)" d="M18.956,14.186 C19.148,14.325 19.319,14.401 19.485,14.430 L20.156,17.319 L22.000,14.704 L21.620,14.475 L21.547,14.435 C21.903,13.584 22.171,12.690 21.906,12.327 C21.591,11.885 20.298,10.557 20.204,10.456 C19.738,9.959 19.110,10.166 18.772,10.635 C18.620,10.853 18.429,11.051 18.323,11.256 C18.323,11.258 17.311,13.032 18.956,14.186 ZM4.255,32.318 C3.701,31.207 4.561,29.406 4.587,29.412 C4.676,29.433 4.831,29.457 4.831,29.457 L4.980,29.869 C4.980,29.869 5.031,29.873 5.067,29.881 C7.635,30.358 10.523,30.235 11.079,29.836 C12.446,28.854 13.808,26.318 14.230,25.070 C14.230,25.070 16.842,23.550 18.903,23.781 C20.407,23.951 21.015,25.256 21.015,27.179 C21.110,27.179 21.664,27.234 21.664,27.234 C21.664,27.234 21.614,27.447 21.607,27.545 C21.601,27.641 21.367,27.887 21.385,27.977 C21.558,28.725 21.906,29.547 22.697,29.909 C25.402,29.263 28.003,26.731 28.003,26.731 L26.981,25.854 C26.185,26.502 24.951,27.053 24.137,27.141 C24.137,27.141 24.928,21.168 24.080,20.375 C23.026,19.385 21.098,18.930 20.193,19.064 L21.159,21.773 L9.834,24.517 C9.834,24.517 9.192,22.865 9.000,22.300 C9.024,23.665 8.086,25.847 7.709,26.284 C6.764,27.382 5.073,27.386 3.949,27.139 L2.946,26.893 C2.946,26.893 2.087,28.071 1.783,28.748 C0.409,31.812 3.085,32.998 3.085,32.998 L25.514,32.998 C25.042,32.828 24.518,32.684 23.956,32.559 C19.459,31.057 9.330,31.127 4.255,32.318 ZM7.010,20.967 C7.063,20.971 9.347,20.848 9.954,20.301 C9.960,20.299 10.968,18.559 10.046,17.893 C9.760,17.657 9.336,17.743 7.958,17.801 C6.580,17.860 6.102,17.643 6.102,17.643 L7.199,16.822 L6.277,13.147 L15.897,10.941 L15.920,10.928 C14.751,9.872 12.989,9.060 10.112,9.363 L9.524,8.808 C9.860,8.628 10.034,8.607 10.332,8.319 C9.410,6.465 8.989,4.451 8.969,3.351 C9.641,3.164 12.300,2.921 12.853,0.002 C12.853,0.002 10.956,1.298 9.484,0.557 C6.992,-0.696 5.256,1.597 5.256,1.597 C5.256,1.597 3.578,1.677 3.618,2.677 C3.737,5.672 4.716,7.863 6.603,10.411 C4.315,11.416 3.177,12.398 2.110,13.948 C0.695,16.009 -0.002,18.752 -0.002,18.752 C-0.002,18.752 2.001,21.133 6.649,21.625 C6.744,21.260 6.926,21.168 7.010,20.967 Z" />
    </svg>
