    <svg id="loupe">
        <path fill-rule="evenodd" fill-opacity="0.98" fill="rgb(255, 255, 255)" d="M21.016,43.000 C9.409,43.000 -0.000,33.591 -0.000,21.984 C-0.000,10.378 9.409,0.969 21.016,0.969 C32.622,0.969 42.031,10.378 42.031,21.984 C42.031,33.591 32.622,43.000 21.016,43.000 ZM29.975,29.352 L25.701,25.106 C26.525,23.955 27.022,22.554 27.022,21.030 C27.022,17.147 23.875,14.000 19.993,14.000 C16.110,14.000 12.963,17.147 12.963,21.030 C12.963,24.912 16.110,28.059 19.993,28.059 C21.524,28.059 22.931,27.556 24.086,26.725 L28.389,30.970 L29.975,30.970 L29.975,29.352 ZM19.996,26.028 C17.220,26.028 14.970,23.778 14.970,21.002 C14.970,18.227 17.220,15.976 19.996,15.976 C22.772,15.976 25.022,18.227 25.022,21.002 C25.022,23.778 22.772,26.028 19.996,26.028 Z" />
    </svg>
