<?xml version="1.0" encoding="utf-8"?><svg xmlns="http://www.w3.org/2000/svg" xmlns:xlink="http://www.w3.org/1999/xlink"><symbol viewBox="0 0 22 22" id="arrowLeft"><path fill-rule="evenodd" d="M11.515 22.156C5.673 22.156.937 17.413.937 11.562.937 5.712 5.673.969 11.515.969c5.843 0 10.579 4.743 10.579 10.593 0 5.851-4.736 10.594-10.579 10.594zm.42-15.294l-3.876 4.634 3.776 4.664 1.937-.296-3.492-4.341 3.617-4.4-1.962-.261z"/></symbol><symbol viewBox="0 0 22 22" id="arrowRight"><path fill-rule="evenodd" d="M11.516 22.156C5.674 22.156.938 17.413.938 11.562.938 5.712 5.674.969 11.516.969s10.578 4.743 10.578 10.593c0 5.851-4.736 10.594-10.578 10.594zm-.42-15.294l-1.962.261 3.617 4.4-3.492 4.341 1.937.296 3.776-4.664-3.876-4.634z"/></symbol><symbol viewBox="0 0 28 28" id="close"><path fill-rule="evenodd" fill="#FFF" d="M14 27.999C6.268 27.999 0 21.732 0 14S6.268.001 14 .001 27.999 6.268 27.999 14 21.732 27.999 14 27.999zm6.124-18.5l-.278-1.298-1.298-.278-4.489 4.396-4.49-4.396-1.391.278-.185 1.298 4.397 4.489-4.49 4.49.278 1.298 1.391.278 4.397-4.49 4.582 4.49 1.298-.278.278-1.298-4.489-4.49 4.489-4.489z"/></symbol><symbol viewBox="0 0 28 33.69" id="footerLogo"><path fill-rule="evenodd" fill="#6B7076" d="M18.956 14.186c.192.139.363.215.529.244l.671 2.889L22 14.704l-.38-.229-.073-.04c.356-.851.624-1.745.359-2.108-.315-.442-1.608-1.77-1.702-1.871-.466-.497-1.094-.29-1.432.179-.152.218-.343.416-.449.621 0 .002-1.012 1.776.633 2.93zM4.255 32.318c-.554-1.111.306-2.912.332-2.906.089.021.244.045.244.045l.149.412s.051.004.087.012c2.568.477 5.456.354 6.012-.045 1.367-.982 2.729-3.518 3.151-4.766 0 0 2.612-1.52 4.673-1.289 1.504.17 2.112 1.475 2.112 3.398.095 0 .649.055.649.055s-.05.213-.057.311c-.006.096-.24.342-.222.432.173.748.521 1.57 1.312 1.932 2.705-.646 5.306-3.178 5.306-3.178l-1.022-.877c-.796.648-2.03 1.199-2.844 1.287 0 0 .791-5.973-.057-6.766-1.054-.99-2.982-1.445-3.887-1.311l.966 2.709-11.325 2.744S9.192 22.865 9 22.3c.024 1.365-.914 3.547-1.291 3.984-.945 1.098-2.636 1.102-3.76.855l-1.003-.246s-.859 1.178-1.163 1.855c-1.374 3.064 1.302 4.25 1.302 4.25h22.429c-.472-.17-.996-.314-1.558-.439-4.497-1.502-14.626-1.432-19.701-.241zM7.01 20.967c.053.004 2.337-.119 2.944-.666.006-.002 1.014-1.742.092-2.408-.286-.236-.71-.15-2.088-.092-1.378.059-1.856-.158-1.856-.158l1.097-.821-.922-3.675 9.62-2.206.023-.013c-1.169-1.056-2.931-1.868-5.808-1.565l-.588-.555c.336-.18.51-.201.808-.489-.922-1.854-1.343-3.868-1.363-4.968.672-.187 3.331-.43 3.884-3.349 0 0-1.897 1.296-3.369.555-2.492-1.253-4.228 1.04-4.228 1.04s-1.678.08-1.638 1.08c.119 2.995 1.098 5.186 2.985 7.734-2.288 1.005-3.426 1.987-4.493 3.537-1.415 2.061-2.112 4.804-2.112 4.804s2.003 2.381 6.651 2.873c.095-.365.277-.457.361-.658z"/></symbol><symbol viewBox="0 0 40.1 55.2" id="logo"><path fill-rule="evenodd" clip-rule="evenodd" fill="#EBF4FF" d="M30.8 20.1c1 .1 1.8-.7 1.9-1.7s-.7-1.8-1.6-1.9c-1-.1-1.8.7-1.9 1.7-.1 1 .6 1.8 1.6 1.9zm-4.8.5c1.2.1 2.3-1.1 2.4-2.6.1-1.5-.8-2.8-2-2.9-1.2-.1-2.3 1.1-2.4 2.6-.1 1.5.8 2.8 2 2.9zm8.3 1.4c.9.1 1.6-.6 1.7-1.5.1-.9-.6-1.6-1.5-1.7-.9-.1-1.6.6-1.7 1.5 0 .8.7 1.6 1.5 1.7zm2.8 2.2c.8.1 1.4-.5 1.5-1.3.1-.8-.5-1.4-1.3-1.5-.8-.1-1.4.5-1.5 1.3 0 .7.6 1.4 1.3 1.5zm1.8.5c-.7 0-1.2.4-1.3 1.1 0 .7.4 1.2 1.1 1.3.7 0 1.2-.4 1.3-1.1s-.5-1.3-1.1-1.3zm-10.7-2.8s.1 0 0 0zm0 0c-2.2-.2-3.5.9-3.6 2.8-.1 1.5.2 3.1 1.5 4.7 1.7 2 4.6 4.1 4.4 6.8-.1 1.5-.5 4.3-2.7 6.3-2.8 2.5-4.4 4.8-4.6 7.4-.2 2.6 1.4 4.9 4.4 5.1 3 .2 4.9-1.8 5.1-5.2.2-3.4.3-6.6 2.1-9.9 1.7-3.3 2.6-4.8 3.1-5.9.5-1.1.5-1.9.6-2.6.2-2.3-1.4-4.1-2.3-5.1-2.5-2.8-5-4.2-8-4.4zM9.5 4.8c1 0 1.8-.8 1.8-1.8s-.8-1.8-1.8-1.8S7.8 2 7.8 3s.8 1.8 1.7 1.8zM14.3 0c-1.2 0-2.2 1.3-2.2 2.8 0 1.5 1 2.8 2.2 2.8 1.2 0 2.2-1.3 2.2-2.8 0-1.5-1-2.8-2.2-2.8zM5.9 6.4c.9 0 1.6-.7 1.6-1.6s-.7-1.6-1.6-1.6c-.9 0-1.6.7-1.6 1.6 0 .9.7 1.6 1.6 1.6zm-3 2c.8 0 1.4-.6 1.4-1.4 0-.8-.6-1.4-1.4-1.4-.7 0-1.3.6-1.3 1.4 0 .8.6 1.4 1.3 1.4zM2.4 10c0-.7-.5-1.2-1.2-1.2S0 9.3 0 10s.5 1.2 1.2 1.2c.6 0 1.2-.5 1.2-1.2zm11.1 4.4c1.5-1.5 1.9-3 1.9-4.6 0-1.9-1.1-3-3.4-3-3 0-5.6 1.2-8.3 3.8-.9 1-2.6 2.7-2.6 4.9 0 .8 0 1.5.4 2.7.4 1.1 1.1 2.7 2.6 6.1 1.5 3.4 1.4 6.6 1.4 10 0 3.4 1.7 5.6 4.7 5.5 3 0 4.7-2.1 4.7-4.8 0-2.7-1.4-5.1-4.1-7.7-2.1-2.1-2.3-4.9-2.3-6.4.2-2.7 3.2-4.6 5-6.5zm-1.7-7.6c-.2 0-.1 0 0 0zm.2 0h-.2.2z"/></symbol><symbol viewBox="0 0 42.03 42.03" id="loupe"><path fill-rule="evenodd" fill-opacity=".98" fill="#FFF" d="M21.016 43C9.409 43 0 33.591 0 21.984 0 10.378 9.409.969 21.016.969c11.606 0 21.015 9.409 21.015 21.015C42.031 33.591 32.622 43 21.016 43zm8.959-13.648l-4.274-4.246a6.975 6.975 0 001.321-4.076 7.03 7.03 0 10-14.059 0 7.03 7.03 0 007.03 7.029 6.982 6.982 0 004.093-1.334l4.303 4.245h1.586v-1.618zm-9.979-3.324a5.026 5.026 0 110-10.051 5.026 5.026 0 010 10.051z"/></symbol><symbol viewBox="0 0 42.03 42.03" id="play"><path fill-rule="evenodd" fill-opacity=".98" fill="#FFF" d="M21.016 43C9.409 43 0 33.591 0 21.984 0 10.378 9.409.969 21.016.969c11.606 0 21.015 9.409 21.015 21.015C42.031 33.591 32.622 43 21.016 43zm-3.984-28.923l-.012 15.892 12.005-7.912-11.993-7.98z"/></symbol></svg>